<?xml version="1.0" encoding="UTF-8"?>
<svg id="Layer_2" data-name="Layer 2" xmlns="http://www.w3.org/2000/svg" xmlns:xlink="http://www.w3.org/1999/xlink"
  viewBox="0 0 1570.17 322.87">
  <defs>
    <style>
      .cls-1 {
        fill: url(#linear-gradient);
      }

      .cls-2 {
        opacity: .7;
      }

      .cls-2,
      .cls-3,
      .cls-4 {
        fill: #bcb499;
      }

      .cls-3 {
        opacity: .4;
      }

      .cls-5 {
        fill: #000;
      }

      @media (prefers-color-scheme: dark) {
        .cls-5 {
          fill: #fff;
        }
      }
    </style>
    <linearGradient id="linear-gradient" x1="307.93" y1="82.56" x2="173.29" y2="53.45" gradientUnits="userSpaceOnUse">
      <stop offset="0" stop-color="#dcd8ca" />
      <stop offset="1" stop-color="#bcb499" />
    </linearGradient>
  </defs>
  <g id="Layer_1-2" data-name="Layer 1">
    <g>
      <g>
        <g>
          <path class="cls-4"
            d="M182.7,1.43l-11.01,62.72c-.1-.03-.23-.03-.33-.03-1.66-.2-3.36-.33-5.06-.4-1.63-.1-3.29-.13-4.96-.13-3.36,0-6.69.17-9.98.53-.83.03-1.66.13-2.46.27-.83.1-1.66.2-2.46.33-1.6.23-3.23.53-4.79.87-.93.2-1.8.37-2.7.6-.9.2-1.8.43-2.66.67-1.8.5-3.56,1-5.29,1.56-.87.27-1.73.53-2.6.86-.83.33-1.7.67-2.56,1-1.56.57-3.06,1.23-4.59,1.93-.7.3-1.4.63-2.1.97-1.5.7-2.96,1.43-4.39,2.2h-.03c-1.16.7-2.33,1.36-3.46,2.03-1.16.7-2.33,1.43-3.46,2.16-1.76,1.16-3.46,2.36-5.12,3.63-.23.17-.43.33-.63.47-1.53,1.2-3.06,2.43-4.53,3.69-.1.07-.2.17-.3.23-9.85,8.58-17.97,19.07-23.72,30.91-3.23,6.55-5.72,13.54-7.42,20.83-.07.27-.17.57-.23.86-.5,2.33-.97,4.72-1.33,7.12-.1.93-.23,1.83-.37,2.76-.4,3.76-.63,7.55-.63,11.38,0,53.94,43.89,97.82,97.82,97.82v63.58C72.37,322.85,0,250.41,0,161.44c0-33.04,9.92-63.78,27.05-89.37,11.85-17.8,27.15-33.07,44.95-44.92,14.41-9.65,30.41-17.04,47.58-21.66,1.76-.47,3.53-.9,5.32-1.33.13-.03.27-.07.43-.1,1.8-.4,3.66-.8,5.49-1.16.2-.03.4-.07.6-.07,1.86-.37,3.76-.7,5.62-1,1.93-.27,3.83-.53,5.76-.77.1-.03.23-.03.37-.03,1.96-.23,3.96-.4,5.92-.57,1.8-.13,3.63-.23,5.46-.3.47-.03.93-.07,1.33-.03,1.8-.1,3.63-.13,5.46-.13s3.63.03,5.42.13c.5-.03,1,0,1.46.03,1.8.07,3.59.17,5.39.3h.17c1.06.1,2.13.2,3.16.3.83.07,1.66.17,2.5.27.27,0,.53.03.8.07.83.1,1.66.2,2.46.33Z" />
          <path class="cls-2"
            d="M322.75,161.44c0,8.17-.61,16.18-1.77,24.01-.21,1.31-.43,2.62-.64,3.9-12.95,73.87-76.28,130.65-153.17,133.36l-5.76.15h-.03v-63.69c53.94,0,97.74-43.73,97.74-97.74h63.63Z" />
          <path class="cls-3"
            d="M259.11,161.44h-53.24c-24.6,0-44.5,19.94-44.5,44.5v53.24c53.96,0,97.74-43.74,97.74-97.74Z" />
        </g>
        <path class="cls-1"
          d="M306.81,92.3l-54.83,32.77c-9.38-22.76-27.12-41.46-48.85-52.11-.1-.03-.17-.1-.27-.13-1.83-.87-3.69-1.7-5.62-2.46-1.83-.73-3.66-1.4-5.52-1.96-.87-.3-1.76-.57-2.63-.83-.9-.27-1.76-.53-2.66-.73-.86-.23-1.76-.47-2.66-.67-.9-.23-1.8-.4-2.7-.6-1.6-.33-3.19-.63-4.82-.87-.8-.13-1.6-.23-2.43-.33-.83-.13-1.63-.23-2.46-.27-1.66-.2-3.36-.33-5.06-.4L176.95.77c.83.07,1.66.17,2.5.27.27,0,.53.03.8.07,1.83.23,3.63.47,5.42.73.1,0,.2.03.3.03,1.7.27,3.39.6,5.09.9.4.07.8.1,1.2.23,1.56.27,3.13.6,4.63.97.3.03.63.1.93.2,1.8.43,3.59.86,5.36,1.33,5.72,1.56,11.31,3.39,16.77,5.52,2.7,1.06,5.32,2.2,7.95,3.39.07,0,.13.03.17.07,7.49,3.39,14.64,7.39,21.49,11.85.4.27.8.53,1.2.8,23.72,16.17,43.32,38.73,56.07,65.18Z" />
      </g>
      <g>
        <path class="cls-5"
          d="M381.87,161.44c0-61.13,46.98-107.51,109.62-107.51,48.79,0,89.44,28.61,101.49,68.96h-46.38c-11.14-17.77-31.32-28.91-55.11-28.91-38.25,0-67.16,28.91-67.16,67.46s28.91,67.46,67.16,67.46c29.81,0,54.21-17.17,61.73-42.76h-55.11v-37.64h99.98v14.45c0,60.23-44.87,106.01-106.61,106.01s-109.62-46.38-109.62-107.51Z" />
        <path class="cls-5"
          d="M626.09,210.22v-98.48h39.15v87.03c0,19.57,12.65,32.22,31.62,32.22,20.18,0,33.73-12.94,33.73-32.82v-86.43h39.15v153.59h-39.15v-16.87c-11.74,13.55-27.7,20.48-46.68,20.48-34.63,0-57.82-23.19-57.82-58.72Z" />
        <path class="cls-5"
          d="M802.56,65.67c0-13.85,10.84-24.39,24.69-24.39s24.69,10.54,24.69,24.39-10.84,24.39-24.69,24.39-24.69-10.54-24.69-24.39ZM807.68,111.75h39.15v153.59h-39.15V111.75Z" />
        <path class="cls-5" d="M885.37,48.51h39.15v216.83h-39.15V48.51Z" />
        <path class="cls-5"
          d="M953.73,188.54c0-45.77,32.22-80.41,74.98-80.41,20.48,0,37.64,8.13,49.99,21.68V48.51h39.15v216.83h-39.15v-18.07c-12.35,13.55-29.51,21.68-49.99,21.68-42.76,0-74.98-34.63-74.98-80.41ZM1078.7,188.54c0-24.09-18.07-42.46-42.46-42.46s-42.16,18.37-42.16,42.46,18.07,42.46,42.16,42.46,42.46-18.37,42.46-42.46Z" />
        <path class="cls-5"
          d="M1146.46,188.54c0-45.77,35.53-80.41,82.51-80.41s82.51,34.63,82.51,81.01c0,4.22-.3,9.03-1.21,12.95h-121.96c5.12,19.87,21.08,32.82,42.16,32.82,15.96,0,29.21-7.23,36.14-17.16h42.46c-11.75,30.41-42.16,51.19-79.5,51.19-47.58,0-83.12-34.63-83.12-80.41ZM1188.62,173.48h81.01c-4.82-18.67-20.48-31.32-40.66-31.32s-34.93,12.35-40.35,31.32Z" />
        <path class="cls-5"
          d="M1338.89,111.75h39.15v23.19c12.05-15.96,28.61-25.6,48.79-25.6h5.72v40.35h-5.72c-31.32,0-48.79,16.56-48.79,42.46v73.18h-39.15V111.75Z" />
        <path class="cls-5"
          d="M1444.89,219.26h39.45c0,10.54,10.24,17.46,24.39,17.46,12.95,0,21.98-6.02,21.98-14.15,0-24.99-83.42-10.54-83.42-65.65,0-31.02,25.9-48.79,59.63-48.79,35.84,0,60.53,19.87,60.53,47.28h-39.15c0-9.04-8.73-15.36-21.68-15.36-12.05,0-20.18,5.42-20.18,13.25,0,24.39,83.72,10.24,83.72,65.35,0,30.12-24.69,50.29-61.43,50.29s-63.84-20.78-63.84-49.69Z" />
      </g>
    </g>
  </g>
</svg>