<?xml version="1.0" encoding="UTF-8"?>
<svg id="Layer_2" data-name="Layer 2" xmlns="http://www.w3.org/2000/svg" xmlns:xlink="http://www.w3.org/1999/xlink"
  viewBox="0 0 575.06 575.27">
  <defs>
    <style>
      .cls-1 {
        fill: url(#linear-gradient);
      }

      .cls-2 {
        opacity: .7;
      }

      .cls-2,
      .cls-3,
      .cls-4 {
        fill: #bcb499;
      }

      .cls-3 {
        opacity: .4;
      }
    </style>
    <linearGradient id="linear-gradient" x1="548.65" y1="147.1" x2="308.75" y2="95.23" gradientUnits="userSpaceOnUse">
      <stop offset="0" stop-color="#dcd8ca" />
      <stop offset="1" stop-color="#bcb499" />
    </linearGradient>
  </defs>
  <g id="Layer_1-2" data-name="Layer 1">
    <g>
      <g>
        <path class="cls-4"
          d="M325.53,2.55l-19.62,111.75c-.18-.06-.42-.06-.59-.06-2.96-.36-5.99-.59-9.01-.71-2.9-.18-5.87-.24-8.83-.24-5.99,0-11.92.3-17.79.95-1.48.06-2.96.24-4.39.47-1.48.18-2.96.36-4.39.59-2.85.42-5.75.95-8.54,1.54-1.66.36-3.2.65-4.8,1.07-1.6.36-3.2.77-4.74,1.19-3.2.89-6.34,1.78-9.43,2.79-1.54.47-3.08.95-4.62,1.54-1.48.59-3.02,1.19-4.56,1.78-2.79,1.01-5.45,2.19-8.18,3.44-1.24.53-2.49,1.13-3.74,1.72-2.67,1.24-5.28,2.55-7.82,3.91h-.06c-2.08,1.25-4.15,2.43-6.17,3.62-2.08,1.25-4.15,2.55-6.17,3.85-3.14,2.07-6.17,4.21-9.13,6.46-.41.3-.77.59-1.13.83-2.73,2.13-5.45,4.33-8.06,6.58-.18.12-.35.3-.53.41-17.55,15.3-32.01,33.97-42.27,55.07-5.75,11.68-10.2,24.13-13.22,37.11-.12.47-.3,1.01-.41,1.54-.89,4.15-1.72,8.42-2.37,12.69-.18,1.66-.42,3.26-.65,4.92-.71,6.7-1.13,13.46-1.13,20.27,0,96.1,78.19,174.29,174.3,174.29v113.29C128.94,575.23,0,446.17,0,287.64c0-58.87,17.67-113.65,48.2-159.24,21.11-31.72,48.38-58.93,80.09-80.03,25.67-17.19,54.18-30.35,84.78-38.59,3.14-.83,6.28-1.6,9.49-2.37.24-.06.47-.12.77-.18,3.2-.71,6.52-1.42,9.78-2.07.36-.06.71-.12,1.07-.12,3.32-.65,6.7-1.25,10.02-1.78,3.44-.47,6.82-.95,10.26-1.36.18-.06.42-.06.65-.06,3.5-.42,7.06-.71,10.55-1.01,3.2-.24,6.46-.42,9.72-.53.83-.06,1.66-.12,2.37-.06,3.2-.18,6.46-.24,9.72-.24s6.46.06,9.66.24c.89-.06,1.78,0,2.61.06,3.2.12,6.4.3,9.6.53h.3c1.9.18,3.79.36,5.63.53,1.48.12,2.96.3,4.45.47.47,0,.95.06,1.42.12,1.48.18,2.96.36,4.39.59Z" />
        <path class="cls-2"
          d="M575.06,287.65c0,14.55-1.09,28.83-3.15,42.79-.38,2.33-.76,4.67-1.14,6.95-23.08,131.62-135.91,232.78-272.91,237.62l-10.26.27h-.06v-113.49c96.11,0,174.14-77.92,174.14-174.14h113.38Z" />
        <path class="cls-3"
          d="M461.66,287.64h-94.86c-43.82,0-79.28,35.53-79.28,79.29v94.86c96.14,0,174.14-77.94,174.14-174.14Z" />
      </g>
      <path class="cls-1"
        d="M546.66,164.45l-97.7,58.39c-16.72-40.55-48.32-73.87-87.03-92.84-.18-.06-.3-.18-.47-.24-3.26-1.54-6.58-3.02-10.02-4.39-3.26-1.3-6.52-2.49-9.84-3.5-1.54-.53-3.14-1.01-4.68-1.48-1.6-.47-3.14-.95-4.74-1.3-1.54-.42-3.14-.83-4.74-1.19-1.6-.42-3.2-.71-4.8-1.07-2.85-.59-5.69-1.13-8.6-1.54-1.42-.24-2.85-.42-4.33-.59-1.48-.24-2.9-.42-4.39-.47-2.96-.36-5.99-.59-9.01-.71L315.27,1.36c1.48.12,2.96.3,4.45.47.47,0,.95.06,1.42.12,3.26.42,6.46.83,9.66,1.3.18,0,.36.06.53.06,3.02.47,6.05,1.07,9.07,1.6.71.12,1.42.18,2.13.42,2.79.47,5.57,1.07,8.24,1.72.53.06,1.13.18,1.66.36,3.2.77,6.4,1.54,9.54,2.37,10.2,2.79,20.16,6.05,29.88,9.84,4.8,1.9,9.49,3.91,14.17,6.05.12,0,.24.06.3.12,13.34,6.05,26.08,13.16,38.3,21.11.71.47,1.42.95,2.13,1.42,42.27,28.81,77.19,69.01,99.89,116.14Z" />
    </g>
  </g>
</svg>