<svg width="232" height="37" viewBox="0 0 232 37" fill="none" xmlns="http://www.w3.org/2000/svg">
  <style>
    #Group path {
      fill: #0E0E0E;
    }

    @media (prefers-color-scheme: dark) {
      #Group path {
        fill: #f1f1f1;
      }
    }
  </style>
  <g id="Layer_1" clip-path="url(#clip0_2159_2749)">
    <g id="Group">
      <path id="Vector"
        d="M33.8987 20.1754V19.3628H39.2971V20.8541C39.2971 23.9728 41.0635 25.1589 45.4434 25.1589C49.0753 25.1589 50.6724 24.243 50.6724 22.0401V21.4295C50.6394 19.1914 49.4493 18.4117 45.9867 17.6321L40.9953 16.2418C37.0224 15.0887 34.5102 12.8858 34.5102 8.7501C34.5102 3.69855 38.041 0.988281 44.8648 0.988281C51.6887 0.988281 55.457 3.86986 55.457 9.12348V10.1074H50.0586V8.92142C50.0586 6.44616 48.5979 5.4644 44.8978 5.4644C41.5035 5.4644 39.9416 6.31218 39.9416 8.24495V8.65127C39.9416 10.5489 41.4353 11.4977 44.1851 12.1083L49.2095 13.4634C53.6223 14.6165 56.1015 16.6152 56.1015 21.2604C56.1015 27.1246 52.8766 29.6679 45.3378 29.6679C37.392 29.6679 33.8965 26.38 33.8965 20.1754H33.8987Z" />
      <path id="Vector_2"
        d="M64.4537 10.6498C65.778 8.51496 67.9844 6.95557 71.1433 6.95557C75.7608 6.95557 78.3082 10.3116 78.3082 15.4312V29.3295H73.2156V16.0066C73.2156 12.9559 71.9243 11.2955 69.0403 11.2955C65.2038 11.2955 64.4559 14.21 64.4559 16.1779V29.3295H59.3633V7.2938H64.4559V10.6498H64.4537Z" />
      <path id="Vector_3"
        d="M95.6886 25.9716C93.9573 28.6489 91.0711 29.6658 87.9144 29.6658C83.8051 29.6658 81.3281 27.7682 81.3281 23.8697C81.3281 19.5979 85.0282 18.0055 88.3214 17.1248L90.7324 16.5142C93.6867 15.7675 95.5544 15.2601 95.5544 13.5646V13.3954C95.5544 12.2424 94.5689 11.2255 91.7179 11.2255C88.4578 11.2255 87.1687 12.4466 87.1687 14.5134V15.5632H82.0409V14.9197C82.0409 9.73416 85.334 6.95361 91.6497 6.95361C98.4054 6.95361 100.647 9.86814 100.647 14.3772V29.3276H95.6908V25.9716H95.6886ZM89.5093 25.3962C92.7012 25.3962 95.1122 23.5996 95.5522 20.5489V17.9726C95.044 19.1937 93.4822 19.532 91.5793 20.1426L89.4059 20.718C87.437 21.2934 86.4515 21.9391 86.4515 23.2613C86.4515 24.7526 87.437 25.3962 89.5071 25.3962H89.5093Z" />
      <path id="Vector_4"
        d="M109.745 9.97137C110.763 8.44492 112.699 6.95361 116.025 6.95361C121.457 6.95361 124.717 10.7511 124.717 16.2748V20.5467C124.717 25.7322 121.492 29.6658 116.094 29.6658C112.869 29.6658 110.9 28.2426 109.745 26.8194V36.9884H104.617V7.29404H109.745V9.97137ZM114.6 25.2929C118.063 25.2929 119.455 22.8858 119.455 20.1074V16.5142C119.455 13.7688 118.063 11.3287 114.6 11.3287C111.511 11.3287 109.983 13.3296 109.745 15.8026V20.8542C109.983 23.3294 111.476 25.2951 114.6 25.2951V25.2929Z" />
      <path id="Vector_5" d="M132.9 5.97189H124.547V1.32666H146.583V5.97189H138.23V29.3276H132.9V5.97189Z" />
      <path id="Vector_6"
        d="M150.894 10.5817C151.844 8.44687 154.187 6.95557 157.073 6.95557C160.74 6.95557 163.591 9.0245 163.591 14.5153V17.2959H158.362V15.093C158.362 12.4837 157.445 11.2955 155.17 11.2955C151.945 11.2955 150.891 13.5336 150.891 15.5674V29.3295H145.764V7.2938H150.891V10.5817H150.894Z" />
      <path id="Vector_7"
        d="M179.786 25.9716C178.055 28.6489 175.169 29.6658 172.012 29.6658C167.903 29.6658 165.426 27.7682 165.426 23.8697C165.426 19.5979 169.126 18.0055 172.419 17.1248L174.83 16.5142C177.784 15.7675 179.652 15.2601 179.652 13.5646V13.3954C179.652 12.2424 178.667 11.2255 175.816 11.2255C172.555 11.2255 171.266 12.4466 171.266 14.5134V15.5632H166.139V14.9197C166.139 9.73416 169.432 6.95361 175.747 6.95361C182.503 6.95361 184.745 9.86814 184.745 14.3772V29.3276H179.788V25.9716H179.786ZM173.607 25.3962C176.799 25.3962 179.21 23.5996 179.65 20.5489V17.9726C179.142 19.1937 177.58 19.532 175.677 20.1426L173.504 20.718C171.535 21.2934 170.549 21.9391 170.549 23.2613C170.549 24.7526 171.535 25.3962 173.605 25.3962H173.607Z" />
      <path id="Vector_8"
        d="M208.035 1.32666V29.3276H202.943V26.6503C201.924 28.1767 199.988 29.6681 196.662 29.6681C191.231 29.6681 187.971 25.8706 187.971 20.3468V16.075C187.971 10.8873 191.196 6.95584 196.594 6.95584C199.819 6.95584 201.788 8.37906 202.943 9.80228V1.32666H208.035ZM198.086 25.293C201.174 25.293 202.703 23.2921 202.941 20.8191V15.7675C202.703 13.2922 201.209 11.3265 198.086 11.3265C194.623 11.3265 193.23 13.7337 193.23 16.5121V20.1052C193.23 22.8507 194.623 25.2908 198.086 25.2908V25.293Z" />
      <path id="Vector_9"
        d="M211.395 16.9886C211.395 10.8191 214.723 6.95361 221.683 6.95361C227.999 6.95361 231.53 10.5468 231.53 17.1226V19.5627H216.692V20.0723C216.692 23.1911 218.049 25.2929 221.716 25.2929C224.501 25.2929 225.553 24.0388 225.79 22.5805L225.858 21.8008H231.393L231.36 22.139C230.953 26.6481 227.761 29.6636 221.683 29.6636C214.723 29.6636 211.395 25.8003 211.395 19.5627V16.9864V16.9886ZM226.232 15.8707L226.199 14.9548C225.792 12.6157 224.231 11.3287 221.514 11.3287C218.322 11.3287 216.929 13.1582 216.727 15.8707H226.235H226.232Z" />
    </g>
    <path id="Vector_10"
      d="M27.4668 11.2364L27.1105 10.6214L22.548 2.73001C21.9607 1.71531 20.8762 1.08936 19.7015 1.08936H11.1221C9.94744 1.08936 8.86293 1.71531 8.27557 2.73001L3.71094 10.6214L8.27557 18.5128C8.86293 19.5275 9.94744 20.1535 11.1221 20.1535H15.4162L9.90344 10.6214L15.4118 1.09814L20.918 10.6214L25.3176 18.2317L27.4646 14.5177C28.052 13.503 28.052 12.2511 27.4646 11.2364H27.4668Z"
      fill="url(#paint0_linear_2159_2749)" />
    <g id="Group_2">
      <path id="Vector_11"
        d="M24.205 20.1536L19.6426 12.2622C19.0552 11.2475 17.9707 10.6216 16.796 10.6216H12.502L18.0147 20.1536L12.502 29.6857H16.796C17.9707 29.6857 19.0552 29.0597 19.6426 28.045L24.205 20.1536Z"
        fill="url(#paint1_linear_2159_2749)" />
      <path id="Vector_12"
        d="M6.9894 20.1537L2.58755 12.5435L0.440515 16.2574C-0.146838 17.2721 -0.146838 18.5241 0.440515 19.5388L0.796887 20.1537L5.35933 28.0451C5.94668 29.0598 7.03119 29.6858 8.2059 29.6858H12.5L6.9872 20.1537H6.9894Z"
        fill="url(#paint2_linear_2159_2749)" />
    </g>
  </g>
  <defs>
    <linearGradient id="paint0_linear_2159_2749" x1="13.9998" y1="-33.2117" x2="39.3461" y2="10.8138"
      gradientUnits="userSpaceOnUse">
      <stop stop-color="#045856" />
      <stop offset="1" stop-color="#52C4C2" />
    </linearGradient>
    <linearGradient id="paint1_linear_2159_2749" x1="14.3304" y1="34.3414" x2="-24.581" y2="-4.38695"
      gradientUnits="userSpaceOnUse">
      <stop stop-color="#E6960D" />
      <stop offset="0.269327" stop-color="#F2CA86" />
    </linearGradient>
    <linearGradient id="paint2_linear_2159_2749" x1="1.9529" y1="33.8722" x2="-32.5516" y2="-6.92072"
      gradientUnits="userSpaceOnUse">
      <stop stop-color="#E6960D" />
      <stop offset="0.269327" stop-color="#F2CA86" />
    </linearGradient>
    <clipPath id="clip0_2159_2749">
      <rect width="231.529" height="36" fill="white" transform="translate(0 0.988281)" />
    </clipPath>
  </defs>
</svg>