<?xml version="1.0" encoding="UTF-8"?>
<svg width="153px" height="34px" viewBox="0 0 153 34" version="1.1" xmlns="http://www.w3.org/2000/svg"
    xmlns:xlink="http://www.w3.org/1999/xlink">
    <title>logo</title>
    <style>
        @media (prefers-color-scheme: light) {
            #Shape-Copy-2 {
                fill: #000;
            }
        }

        @media (prefers-color-scheme: dark) {
            #Shape-Copy-2 {
                fill: #fff;
            }
        }
    </style>
    <defs>
        <linearGradient x1="100%" y1="0%" x2="-11.1390956%" y2="78.9110557%" id="linearGradient-1">
            <stop stop-color="#FF9C3A" offset="0%"></stop>
            <stop stop-color="#D145DE" offset="51.6179263%"></stop>
            <stop stop-color="#7F39FF" offset="100%"></stop>
        </linearGradient>
    </defs>
    <g id="Landing-Page" stroke="none" stroke-width="1" fill="none" fill-rule="evenodd">
        <g id="Home-Final" transform="translate(-150.000000, -35.000000)">
            <g id="logo" transform="translate(150.000000, 35.000000)">
                <path
                    d="M24.3501326,1.275 C26.3363293,1.275 27.9522455,2.85008385 28.0014959,4.81162061 L28.0026525,4.90384615 L28.0026525,14.2941969 C28.0026525,17.4175803 26.921272,20.44398 24.9431095,22.8668304 L24.8279911,23.005937 L18.0247764,31.4192845 C17.353952,32.2190562 16.3709889,32.6927212 15.3270354,32.7234102 L15.2188329,32.725 L12.7838196,32.725 C11.7359585,32.725 10.7404274,32.2779941 10.0483749,31.5008515 L9.97787612,31.4192845 L3.17466145,23.005937 C1.1620756,20.6064874 0.0427217344,17.5937468 0.00119844366,14.4742809 L0,14.2941969 L0,4.90384615 C0,2.89968976 1.63528886,1.275 3.65251989,1.275 C5.63871661,1.275 7.25463281,2.85008385 7.3038832,4.81162061 L7.30503979,4.90384615 L7.30503979,14.2941969 C7.30503979,15.7318833 7.79600363,17.1255376 8.69526445,18.2483097 L8.78654847,18.3596756 L13.5247389,24.2833081 C13.7339121,24.544814 14.1168558,24.5883371 14.3800677,24.3805197 C14.4162959,24.351916 14.4491232,24.3193015 14.4779136,24.2833081 L19.2161041,18.3596756 C20.1424928,17.2552143 20.6633402,15.8723092 20.6959792,14.4378103 L20.6976127,14.2941969 L20.6976127,4.90384615 C20.6976127,2.89968976 22.3329016,1.275 24.3501326,1.275 Z M52.3527851,1.275 C54.3700162,1.275 56.005305,2.89968976 56.005305,4.90384615 C56.005305,6.87716937 54.4199457,8.48261204 52.4456124,8.53154322 L52.3527851,8.53269231 L39.8733422,8.53269231 C39.537137,8.53269231 39.2645889,8.80347393 39.2645889,9.1375 L39.2645889,12.7663462 C39.2645889,13.1003722 39.537137,13.3711538 39.8733422,13.3711538 L52.3527851,13.3711538 C54.3700162,13.3711538 56.005305,14.9958436 56.005305,17 C56.005305,18.9733232 54.4199457,20.5787659 52.4456124,20.6276971 L52.3527851,20.6288462 L39.8733422,20.6288462 C39.537137,20.6288462 39.2645889,20.8996278 39.2645889,21.2336538 L39.2645889,21.5360577 C39.2645889,23.6762104 40.9858972,25.4169358 43.1280855,25.466234 L43.2214854,25.4673077 L52.3527851,25.4673077 C54.3700162,25.4673077 56.005305,27.0919975 56.005305,29.0961538 C56.005305,31.0694771 54.4199457,32.6749197 52.4456124,32.7238509 L52.3527851,32.725 L43.2214854,32.725 C37.0638877,32.725 32.0605097,27.8152282 31.9610578,21.7210873 L31.9595491,21.5360577 L31.9595491,4.90384615 C31.9595491,2.93052294 33.5449084,1.32508027 35.5192418,1.27614909 L35.612069,1.275 L36.3950106,1.33748651 L36.3950106,1.33748651 L37.2969594,1.40636053 L37.2969594,1.40636053 L37.7325597,1.43829808 L37.7325597,1.43829808 L38.4357836,1.48782442 L38.4357836,1.48782442 L38.977864,1.52411288 L38.977864,1.52411288 L39.6298408,1.56530769 L39.6298408,1.56530769 L40.1309235,1.59493093 L40.1309235,1.59493093 L40.613785,1.62159184 L40.613785,1.62159184 L40.9639734,1.63964349 L40.9639734,1.63964349 L41.1917383,1.65075221 L41.1917383,1.65075221 L41.5248444,1.66602669 L41.5248444,1.66602669 L41.847701,1.67963486 L41.847701,1.67963486 L42.1603083,1.69157673 L42.1603083,1.69157673 L42.4626661,1.70185229 L42.4626661,1.70185229 L42.6585439,1.70777693 L42.6585439,1.70777693 L42.9438194,1.71527531 L42.9438194,1.71527531 L43.2188454,1.72110739 L43.2188454,1.72110739 L43.5696033,1.72629145 L43.5696033,1.72629145 L43.820714,1.72823548 L43.820714,1.72823548 L43.9824271,1.72860577 L43.9824271,1.72860577 L44.2267049,1.72777262 L44.2267049,1.72777262 L44.5683521,1.72406971 L44.5683521,1.72406971 L44.8365452,1.71934851 L44.8365452,1.71934851 L45.2100796,1.71046154 L45.2100796,1.71046154 L45.502188,1.70185229 L45.502188,1.70185229 L45.9076094,1.68778125 L45.9076094,1.68778125 L46.331252,1.67074789 L46.331252,1.67074789 L46.6609416,1.65602885 L46.6609416,1.65602885 L47.1164713,1.63381142 L47.1164713,1.63381142 L47.4700763,1.61520433 L47.4700763,1.61520433 L48.0821943,1.5804896 L48.0821943,1.5804896 L48.3350133,1.56530769 L48.3350133,1.56530769 L48.8543171,1.53272214 L48.8543171,1.53272214 L49.2557527,1.50633894 L49.2557527,1.50633894 L49.8069436,1.46856932 L49.8069436,1.46856932 L50.2322944,1.43829808 L50.2322944,1.43829808 L51.1137444,1.37275667 L51.1137444,1.37275667 L51.7241542,1.3253595 L51.7241542,1.3253595 L52.3527851,1.275 L52.3527851,1.275 Z M80.3510155,1.275 C83.2748929,1.275 85.0006248,4.51397105 83.3914805,6.91243357 L83.3416956,6.98485278 L70.9962619,24.5157839 C70.8035266,24.7894744 70.8706013,25.1665745 71.1460773,25.3580606 C71.2483752,25.4291688 71.3702057,25.4673077 71.4950553,25.4673077 L80.3510155,25.4673077 C82.3361629,25.4673077 83.9512254,27.0423915 84.0004498,29.0039283 L84.0016058,29.0961538 C84.0016058,31.0694771 82.417084,32.6749197 80.4437937,32.7238509 L80.3510155,32.725 L79.8712056,32.6864056 L79.8712056,32.6864056 L79.4019432,32.6495268 L79.4019432,32.6495268 L78.6432781,32.5918748 L78.6432781,32.5918748 L78.2021424,32.5595712 L78.2021424,32.5595712 L77.6303687,32.5191686 L77.6303687,32.5191686 L77.0773461,32.481816 L77.0773461,32.481816 L76.5430747,32.4475135 L76.5430747,32.4475135 L76.1546765,32.4237883 L76.1546765,32.4237883 L75.5307852,32.3880589 L75.5307852,32.3880589 L75.1705137,32.3689088 L75.1705137,32.3689088 L74.7065591,32.3460441 L74.7065591,32.3460441 L74.2613555,32.3262296 L74.2613555,32.3262296 L73.8349031,32.3094651 L73.8349031,32.3094651 L73.5273692,32.2988934 L73.5273692,32.2988934 L73.1337313,32.2874666 L73.1337313,32.2874666 L72.8508082,32.2808982 L72.8508082,32.2808982 L72.5784327,32.2760454 L72.5784327,32.2760454 L72.4027088,32.2737633 L72.4027088,32.2737633 L72.1479125,32.27177 L72.1479125,32.27177 L71.9048349,32.2714868 L71.9048349,32.2714868 L71.6572715,32.2728754 L71.6572715,32.2728754 L71.3112518,32.2773189 L71.3112518,32.2773189 L71.0397857,32.2825955 L71.0397857,32.2825955 L70.8531172,32.287039 L70.8531172,32.287039 L70.5645778,32.2950928 L70.5645778,32.2950928 L70.1639234,32.3084233 L70.1639234,32.3084233 L69.8514814,32.3203651 L69.8514814,32.3203651 L69.5287952,32.3339733 L69.5287952,32.3339733 L69.1958651,32.3492478 L69.1958651,32.3492478 L68.852691,32.3661886 L68.852691,32.3661886 L68.3791904,32.3913683 L68.3791904,32.3913683 L67.8874783,32.4195104 L67.8874783,32.4195104 L67.2472281,32.4588538 L67.2472281,32.4588538 L66.8494193,32.4846815 L66.8494193,32.4846815 L66.1636402,32.5314307 L66.1636402,32.5314307 L65.4494055,32.5828085 L65.4494055,32.5828085 L64.8575298,32.6272433 L64.8575298,32.6272433 L64.2474425,32.6746405 L64.2474425,32.6746405 L63.7779257,32.7121324 C63.725188,32.7163907 63.6722607,32.7206799 63.6191436,32.725 C60.6952662,32.725 58.9695343,29.4860289 60.5786786,27.0875664 L72.6888436,9.47870689 C72.8785163,9.20291256 72.8072424,8.82657356 72.5296488,8.6381302 C72.4284632,8.56944068 72.3087662,8.53269231 72.186216,8.53269231 L63.6191436,8.53269231 C61.6339962,8.53269231 60.0189337,6.95760846 59.9697094,4.9960717 L59.9685534,4.90384615 C59.9685534,2.93052294 61.5530752,1.32508027 63.5263655,1.27614909 L63.6191436,1.275 L64.4016716,1.33748651 L64.4016716,1.33748651 L65.1557441,1.39534439 L65.1557441,1.39534439 L65.7385141,1.43829808 L65.7385141,1.43829808 L66.4413665,1.48782442 L66.4413665,1.48782442 L67.1157634,1.53272214 L67.1157634,1.53272214 L67.7617047,1.57299122 L67.7617047,1.57299122 L68.3791904,1.60863167 L68.3791904,1.60863167 L68.852691,1.63381142 L68.852691,1.63381142 L69.1958651,1.65075221 L69.1958651,1.65075221 L69.5287952,1.66602669 L69.5287952,1.66602669 L69.8514814,1.67963486 L69.8514814,1.67963486 L70.1639234,1.69157673 L70.1639234,1.69157673 L70.4661215,1.70185229 L70.4661215,1.70185229 L70.6618958,1.70777693 L70.6618958,1.70777693 L70.9470206,1.71527531 L70.9470206,1.71527531 L71.2219013,1.72110739 L71.2219013,1.72110739 L71.5724739,1.72629145 L71.5724739,1.72629145 L71.823452,1.72823548 L71.823452,1.72823548 L71.9850796,1.72860577 L71.9850796,1.72860577 L72.2292283,1.72777262 L72.2292283,1.72777262 L72.5706951,1.72406971 L72.5706951,1.72406971 L72.8387465,1.71934851 L72.8387465,1.71934851 L73.2120835,1.71046154 L73.2120835,1.71046154 L73.5040376,1.70185229 L73.5040376,1.70185229 L73.9092448,1.68778125 L73.9092448,1.68778125 L74.3326636,1.67074789 L74.3326636,1.67074789 L74.6621791,1.65602885 L74.6621791,1.65602885 L75.1174681,1.63381142 L75.1174681,1.63381142 L75.4708862,1.61520433 L75.4708862,1.61520433 L76.0826809,1.5804896 L76.0826809,1.5804896 L76.3353663,1.56530769 L76.3353663,1.56530769 L76.8543958,1.53272214 L76.8543958,1.53272214 L77.2556192,1.50633894 L77.2556192,1.50633894 L77.806519,1.46856932 L77.806519,1.46856932 L78.2316451,1.43829808 L78.2316451,1.43829808 L79.1126294,1.37275667 L79.1126294,1.37275667 L79.7227167,1.3253595 L79.7227167,1.3253595 L80.3510155,1.275 L80.3510155,1.275 Z M111.09748,1.275 C113.083677,1.275 114.699593,2.85008385 114.748843,4.81162061 L114.75,4.90384615 L114.75,9.74230769 C114.75,11.7464641 113.114711,13.3711538 111.09748,13.3711538 C109.111283,13.3711538 107.495367,11.79607 107.446117,9.83453324 L107.44496,9.74230769 L107.44496,9.1375 C107.44496,8.80347393 107.172412,8.53269231 106.836207,8.53269231 L95.8786472,8.53269231 C95.542442,8.53269231 95.2698939,8.80347393 95.2698939,9.1375 L95.2698939,24.8625 C95.2698939,25.1965261 95.542442,25.4673077 95.8786472,25.4673077 L106.836207,25.4673077 C107.172412,25.4673077 107.44496,25.1965261 107.44496,24.8625 L107.44496,23.3504808 C107.44496,23.0164547 107.172412,22.7456731 106.836207,22.7456731 L105.6187,22.7456731 C103.632504,22.7456731 102.016587,21.1705892 101.967337,19.2090525 L101.96618,19.1168269 L101.96618,16.3951923 C101.96618,15.8941532 102.375003,15.4879808 102.87931,15.4879808 L111.09748,15.4879808 C113.083677,15.4879808 114.699593,17.0630646 114.748843,19.0246014 L114.75,19.1168269 L114.75,29.0961538 C114.75,31.0694771 113.164641,32.6749197 111.190307,32.7238509 L111.09748,32.725 L110.448145,32.6802212 L110.448145,32.6802212 L109.351877,32.6074565 L109.351877,32.6074565 L108.452809,32.5507577 L108.452809,32.5507577 L107.732207,32.5075075 L107.732207,32.5075075 L107.037625,32.4678925 L107.037625,32.4678925 L106.633364,32.4458685 L106.633364,32.4458685 L106.238471,32.4251531 L106.238471,32.4251531 L105.60113,32.3935357 L105.60113,32.3935357 L104.989809,32.3655535 L104.989809,32.3655535 L104.519486,32.3457851 L104.519486,32.3457851 L104.065816,32.3283433 L104.065816,32.3283433 L103.628797,32.3132281 L103.628797,32.3132281 L103.311962,32.3034184 L103.311962,32.3034184 L102.904085,32.2923747 L102.904085,32.2923747 L102.512861,32.2836574 L102.512861,32.2836574 L102.23037,32.2786463 L102.23037,32.2786463 L101.780369,32.2732027 L101.780369,32.2732027 L101.522857,32.2716814 L101.522857,32.2716814 L101.193064,32.2716777 L101.193064,32.2716777 L100.852162,32.2739458 L100.852162,32.2739458 L100.495027,32.2784818 L100.495027,32.2784818 L100.121658,32.2852859 L100.121658,32.2852859 L99.7320557,32.294358 L99.7320557,32.294358 L99.3262202,32.3056982 L99.3262202,32.3056982 L98.9041512,32.3193063 L98.9041512,32.3193063 L98.4658488,32.3351825 L98.4658488,32.3351825 L98.011313,32.3533268 L98.011313,32.3533268 L97.420315,32.3791965 L97.420315,32.3791965 L96.8039523,32.40861 L96.8039523,32.40861 L96.0308355,32.448584 L96.0308355,32.448584 L95.3586704,32.4857938 L95.3586704,32.4857938 L94.6611406,32.5265475 L94.6611406,32.5265475 L93.7906233,32.5801297 L93.7906233,32.5801297 L93.0372911,32.6286796 L93.0372911,32.6286796 L91.9400133,32.7026032 L91.9400133,32.7026032 L91.617374,32.725 L91.617374,32.725 C89.6311773,32.725 88.0152611,31.1499161 87.9660107,29.1883794 L87.9648541,29.0961538 L87.9648541,4.90384615 C87.9648541,2.93052294 89.5502134,1.32508027 91.5245468,1.27614909 L91.617374,1.275 L92.7288561,1.35090809 L92.7288561,1.35090809 L93.4923342,1.4008756 L93.4923342,1.4008756 L94.0848541,1.43829808 L94.0848541,1.43829808 L94.9431963,1.49017924 L94.9431963,1.49017924 L95.6305802,1.52951536 L95.6305802,1.52951536 L96.2925995,1.56530769 L96.2925995,1.56530769 L97.0535411,1.60358068 L97.0535411,1.60358068 L97.659758,1.63157666 L97.659758,1.63157666 L98.2406101,1.65602885 L98.2406101,1.65602885 L98.7960975,1.67693724 L98.7960975,1.67693724 L99.2222248,1.69111242 L99.2222248,1.69111242 L99.7320557,1.70564198 L99.7320557,1.70564198 L100.121658,1.71471409 L100.121658,1.71471409 L100.495027,1.72151818 L100.495027,1.72151818 L100.852162,1.72605424 L100.852162,1.72605424 L101.193064,1.72832227 L101.193064,1.72832227 L101.52179,1.72832227 L101.52179,1.72832227 L101.862692,1.72605424 L101.862692,1.72605424 L102.219828,1.72151818 L102.219828,1.72151818 L102.593196,1.71471409 L102.593196,1.71471409 L102.982798,1.70564198 L102.982798,1.70564198 L103.388634,1.69430183 L103.388634,1.69430183 L103.810703,1.68069366 L103.810703,1.68069366 L104.249005,1.66481746 L104.249005,1.66481746 L104.703541,1.64667323 L104.703541,1.64667323 L105.294539,1.62080352 L105.294539,1.62080352 L105.910902,1.59139002 L105.910902,1.59139002 L106.684019,1.55141602 L106.684019,1.55141602 L107.356184,1.51420617 L107.356184,1.51420617 L108.053714,1.47345252 L108.053714,1.47345252 L108.924231,1.41987034 L108.924231,1.41987034 L109.677563,1.37132035 L109.677563,1.37132035 L110.774841,1.29739678 L110.774841,1.29739678 L111.09748,1.275 L111.09748,1.275 Z"
                    id="Shape-Copy-2" fill="#FFFFFF"></path>
                <path
                    d="M122.396704,8.24616274 C122.509119,8.30150995 122.6119,8.37458184 122.701108,8.46257826 C123.929677,9.67447373 125.356422,10.8693662 126.981335,12.0472626 L127.244942,12.2362083 L127.500557,12.4152539 L127.748295,12.5847495 L127.98827,12.7450452 L128.105382,12.8218526 L128.333926,12.969005 L128.554993,13.1078329 L128.768697,13.2386863 L128.975152,13.3619153 L129.174473,13.4778702 L129.271494,13.5332292 L129.460327,13.6389291 L129.642312,13.7382301 L129.817563,13.8314822 L129.986194,13.9190357 L130.226978,14.0404466 L130.45351,14.1510047 L130.666176,14.2518917 L131.385897,14.5823612 L131.582142,14.6754037 L131.71595,14.7424803 L131.799,14.7865664 L131.877259,14.8305555 L131.950841,14.8747978 L131.985915,14.8971233 L132.052697,14.9424018 L132.115088,14.9888088 L132.173203,15.0366944 C132.191874,15.0529416 132.209852,15.0694936 132.227156,15.0864087 C132.652752,15.5024571 132.886814,16.1102063 132.775362,16.7423571 C132.603143,17.7191749 131.68928,18.3788389 130.715342,18.2438771 L130.647304,18.2331658 L127.150978,17.6167317 C126.817834,17.55799 126.500158,17.7804732 126.441429,18.1136566 C126.430898,18.1734003 126.429299,18.2343771 126.436684,18.2945908 L126.454514,18.4295678 L126.463445,18.489392 C127.081914,22.4528584 130.149805,25.7652877 134.319068,26.5005275 C136.490931,26.8835304 138.670246,26.517865 140.566126,25.4939823 L140.707781,25.4159584 C142.477124,24.4222276 144.71651,25.0515271 145.709589,26.8215382 C146.702668,28.5915492 146.073381,30.8320047 144.304038,31.8257355 C140.908916,33.7325658 136.955489,34.4298016 133.042739,33.7397973 C123.801344,32.1100988 117.631078,23.2938381 119.261152,14.0481433 C119.574489,12.2709109 119.995943,10.5553851 120.730355,8.99081971 L120.832461,8.77841397 C121.117455,8.19943226 121.81779,7.96113527 122.396704,8.24616274 Z M138.957261,0.26020274 C148.198656,1.88990121 154.368922,10.7061619 152.738848,19.9518567 C152.425511,21.7290891 152.004057,23.4446149 151.269645,25.0091803 L151.167539,25.221586 C150.882545,25.8005677 150.18221,26.0388647 149.603296,25.7538373 C149.490881,25.6984901 149.3881,25.6254182 149.298892,25.5374217 C148.070323,24.3255263 146.643578,23.1306338 145.018665,21.9527374 L144.885855,21.8570052 L144.626258,21.6730533 L144.499443,21.5847461 L144.251705,21.4152505 L144.01173,21.2549548 L143.779404,21.1035088 L143.554613,20.9605624 L143.337242,20.8257655 L143.127177,20.698768 L142.924303,20.5792198 L142.728506,20.4667708 L142.539673,20.3610709 L142.269228,20.2144096 L142.097301,20.1240506 L141.931937,20.0392152 L141.695947,19.9215532 L141.47408,19.8143501 L141.071172,19.6265939 L140.614103,19.4176388 L140.46498,19.347383 L140.327407,19.2797085 L140.201,19.2134336 L140.161279,19.1914489 L140.085373,19.1473769 L140.014085,19.1028767 C139.99108,19.0879331 139.968826,19.0728597 139.947303,19.0575982 L139.884912,19.0111912 C139.864834,18.9954952 139.845469,18.9795528 139.826797,18.9633056 L139.772844,18.9135913 C139.347248,18.4975429 139.113186,17.8897937 139.224638,17.2576429 C139.396857,16.2808251 140.31072,15.6211611 141.284658,15.7561229 L141.352696,15.7668342 L144.847138,16.3829361 C145.180278,16.4416678 145.49795,16.2191879 145.556678,15.8860097 C145.567151,15.8265949 145.568791,15.7659588 145.561543,15.7060648 L145.534501,15.5020189 L145.516311,15.3862455 C144.853679,11.4780139 141.806512,8.22700896 137.680932,7.49947248 C135.509069,7.11646958 133.329754,7.48213495 131.433874,8.50601768 L131.292219,8.58404163 C129.522876,9.57777242 127.28349,8.94847291 126.290411,7.17846184 C125.297332,5.40845076 125.926619,3.1679953 127.695962,2.17426451 C131.091084,0.267434222 135.044511,-0.429801573 138.957261,0.26020274 Z"
                    id="Shape-Copy-3" fill="url(#linearGradient-1)"></path>
            </g>
        </g>
    </g>
</svg>