<svg class="svg-icon" style="width: 1em;height: 1em;vertical-align: middle;fill: currentColor;overflow: hidden;"
  viewBox="0 0 1024 1024" version="1.1" xmlns="http://www.w3.org/2000/svg">
  <path
    d="M0.512 338.645333l251.52-253.013333v506.026667L0.512 338.645333z m251.52 253.013334l254.464-253.013334 253.013333 253.013334H251.989333z m254.464-253.013334l-254.464-253.013333h506.026667l-251.562667 253.013333z m253.013333-253.013333l252.970667 253.013333-253.013333 253.013334V85.632z"
    fill="#E7290F" />
  <path
    d="M273.749333 788.266667H163.84v79.488c0 10.112 8.661333 18.773333 20.224 18.773333h11.562667v4.352H101.717333v-4.309333h11.52c11.605333 0 20.266667-8.704 20.266667-18.773334v-179.285333c0-8.661333-8.661333-18.773333-20.224-18.773333h-11.562667v-4.352h92.501334v4.309333h-11.52c-11.605333 0-20.266667 8.704-20.266667 18.773333v86.784h109.866667v-86.741333c0-8.661333-8.704-18.773333-20.266667-18.773333h-11.52v-4.352h92.501333v4.309333h-11.562666c-11.562667 0-20.266667 8.704-20.266667 18.773333v179.285334c0 10.112 10.154667 18.773333 20.266667 18.773333h11.52v4.352H240.512v-4.309333h11.562667c11.562667 0 20.266667-8.704 20.266666-18.773334v-79.530666h1.450667zM494.933333 831.573333c0 13.013333-7.253333 33.28-18.773333 43.392-11.605333 10.112-26.026667 18.773333-47.744 18.773334-23.125333 0-44.8-13.013333-52.053333-15.914667a24.618667 24.618667 0 0 0-14.421334 0c-4.352 2.901333-7.253333 7.253333-7.253333 14.506667h-2.901333v-78.08h2.901333c2.901333 24.576 14.464 37.546667 21.674667 46.250666 11.562667 13.013333 33.28 20.224 53.504 17.322667 15.914667-2.858667 34.688-20.224 33.28-43.349333 0-8.661333-2.944-20.224-18.816-30.378667-10.112-7.210667-26.026667-15.872-39.04-26.026667a310.058667 310.058667 0 0 1-39.04-30.293333c-5.76-7.253333-13.013333-15.957333-13.013334-31.829333 0-13.013333 4.352-28.928 15.914667-39.04s26.026667-17.365333 46.250667-17.365334c21.674667 0 37.589333 11.562667 41.941333 13.013334 5.76 2.901333 11.52 2.901333 14.464 0 2.858667-1.450667 5.76-4.309333 7.210667-11.52h2.901333v73.685333h-2.901333c-2.901333-24.576-14.464-41.898667-21.674667-49.152-7.253333-7.253333-21.674667-15.914667-43.392-11.52-20.224 4.266667-30.336 12.970667-31.786667 28.885333-1.450667 13.013333 5.76 20.224 10.112 24.576 7.253333 8.661333 59.306667 37.546667 80.938667 57.813334 11.605333 14.464 20.266667 26.026667 21.717333 46.250666z m75.178667 46.250667c15.872 4.352 44.8 8.704 66.474667-5.76 24.576-17.365333 30.378667-60.714667-4.309334-83.84-14.506667-8.704-49.194667-8.704-62.165333-5.802667v95.402667z m0-108.373333c11.52 2.858667 43.349333 4.266667 56.362667-4.352 20.224-13.013333 27.477333-33.28 23.125333-50.602667-2.901333-10.112-7.253333-20.266667-17.322667-27.477333-18.816-13.013333-47.744-11.562667-62.165333-7.253334v89.642667z m72.277333 7.210666c40.448 13.013333 52.053333 41.898667 44.8 70.826667-8.661333 34.688-47.701333 40.490667-60.714666 43.349333h-118.528v-4.309333h13.013333c8.661333 0 18.773333-7.253333 18.773333-17.365333v-179.242667a19.114667 19.114667 0 0 0-18.773333-18.773333h-13.013333v-4.352h80.938666c18.773333 0 30.378667 1.450667 36.138667 2.858666 11.562667 2.901333 44.8 11.562667 52.053333 43.392a51.797333 51.797333 0 0 1-34.688 63.573334z m257.28-107.008l2.944 76.629334h-4.352c-2.901333-18.773333-10.112-33.28-18.773333-41.898667-2.901333-2.901333-7.253333-7.253333-14.506667-11.562667a72.234667 72.234667 0 0 0-52.053333-10.154666 72.106667 72.106667 0 0 0-56.32 47.701333c-10.154667 24.576-15.914667 67.968 0 104.106667 14.421333 28.928 40.448 40.490667 62.122667 44.8 17.365333 2.901333 56.405333 1.450667 86.741333-38.997334l4.352 2.858667c-23.125333 31.829333-54.954667 53.504-89.6 53.504a116.394667 116.394667 0 0 1-86.784-39.04c-14.464-15.914667-24.576-44.8-24.576-70.826667 0-23.125333 4.352-47.701333 13.013333-62.165333 14.464-24.576 43.392-50.602667 82.389334-54.954667 28.928-2.858667 47.744 2.901333 65.066666 11.562667 8.661333 4.352 13.013333 4.352 17.365334 2.901333a13.098667 13.098667 0 0 0 8.661333-13.013333l4.352-1.450667z"
    fill="#231815" />
</svg>